<svg xmlns="http://www.w3.org/2000/svg" id="smashing" viewBox="0 0 512.0004 601.0869" width="64" height="64"><path d="M0 195.583c0-8.533 2.73-16.3 8.193-23.297 5.46-6.996 12.458-11.52 20.99-13.567l100.865-24.065c-21.504 24.576-32.256 53.248-32.256 86.016 0 63.148 43.18 111.446 129.536 144.897 9.557 3.755 18.773 7.936 27.648 12.544 8.875 4.61 18.176 10.326 27.904 17.153 9.728 6.827 17.578 14.763 23.552 23.808 5.973 9.047 8.96 18.52 8.96 28.417 0 14.678-5.974 26.112-17.92 34.305-11.947 8.19-25.6 12.287-40.96 12.287-19.797 0-40.448-3.84-61.952-11.52-21.504-7.68-39.424-18.006-53.76-30.976l-40.448 91.647c19.115 10.583 43.69 20.993 73.728 31.234-3.413.682-8.79 2.132-16.128 4.35s-13.91 3.927-19.712 5.12-11.264 1.793-16.384 1.793c-8.533 0-16.3-2.73-23.296-8.192-6.997-5.46-11.52-12.458-13.568-20.99L1.024 204.8C.342 200.703 0 197.63 0 195.584zm214.528 23.552c0-12.97 5.974-22.954 17.92-29.952s24.918-10.496 38.912-10.496c16.726 0 35.5 2.987 56.32 8.96 20.82 5.973 35.84 13.91 45.056 23.808l31.232-87.04c-30.72-16.384-62.464-27.136-95.232-32.256.683 0 8.363-2.05 23.04-6.145 14.677-4.096 26.88-7.168 36.608-9.216 9.728-2.05 16.98-3.073 21.76-3.073 8.533 0 16.3 2.73 23.296 8.192 6.997 5.46 11.52 12.457 13.568 20.99l83.968 351.745c.683 4.096 1.024 7.168 1.024 9.216 0 8.534-2.73 16.3-8.192 23.298-5.46 6.996-12.458 11.52-20.992 13.567l-74.24 17.408c16.042-23.893 24.064-49.835 24.064-77.824 0-37.89-12.032-69.036-36.096-93.44-24.064-24.406-55.552-43.094-94.464-56.065-58.368-19.798-87.552-43.69-87.552-71.68z"/></svg>